<?xml version="1.0" encoding="UTF-8" standalone="no"?>
<!DOCTYPE svg PUBLIC "-//W3C//DTD SVG 1.1//EN" "http://www.w3.org/Graphics/SVG/1.1/DTD/svg11.dtd">
<svg width="100%" height="100%" viewBox="0 0 1338 1338" version="1.1" xmlns="http://www.w3.org/2000/svg" xmlns:xlink="http://www.w3.org/1999/xlink" xml:space="preserve" xmlns:serif="http://www.serif.com/" style="fill-rule:evenodd;clip-rule:evenodd;stroke-linejoin:round;stroke-miterlimit:2;">
    <g transform="matrix(1.006024,0,0,1.006024,-5.036145,-27.168675)">
        <path d="M1334,360L1334,1024C1334,1207.236 1185.236,1356 1002,1356L338,1356C154.764,1356 6,1207.236 6,1024L6,360C6,176.764 154.764,28 338,28L1002,28C1185.236,28 1334,176.764 1334,360Z"/>
    </g>
    <g transform="matrix(7.527599,0,0,7.527599,663.962362,628.135347)">
        <path d="M0,5.07C-14.15,5.07 -27.91,6.78 -41.07,10.01C-38.17,28.84 -21.9,43.27 -2.26,43.27C15.2,43.27 29.99,31.88 35.1,16.12C36.74,17.58 38.35,19.08 39.91,20.63C33.03,35.79 17.75,46.34 0,46.34C-21.47,46.34 -39.33,30.9 -43.08,10.51C-50.9,12.52 -58.5,15.08 -65.85,18.13C-71.22,20.35 -76.45,22.84 -81.52,25.57C-74.48,19.87 -66.84,14.89 -58.7,10.74C-53.89,8.29 -48.9,6.13 -43.76,4.28C-43.02,4.02 -42.27,3.76 -41.53,3.51C-28.49,-0.91 -14.52,-3.3 0,-3.3C2.24,-3.3 4.47,-3.24 6.69,-3.13C17.15,-2.6 27.3,-0.82 36.96,2.05C36.44,-8.63 31.66,-18.19 24.28,-24.96C17.28,-31.37 7.97,-35.28 -2.26,-35.28C-16.72,-35.28 -29.36,-27.46 -36.17,-15.82C-38.36,-12.09 -39.95,-7.96 -40.8,-3.57C-41.74,-2.95 -42.67,-2.31 -43.59,-1.66C-43.11,-6.81 -41.73,-11.7 -39.61,-16.17C-32.6,-31.01 -17.5,-41.27 0,-41.27C13.73,-41.27 25.98,-34.96 34.01,-25.08C40.14,-17.54 43.81,-7.93 43.81,2.54C43.81,3.12 43.8,3.7 43.77,4.28C57.6,9.25 70.34,16.5 81.53,25.57C69.51,19.09 56.62,14 43.09,10.51C40.98,9.96 38.84,9.46 36.69,8.99C32.21,8.02 27.66,7.22 23.06,6.6C15.52,5.59 7.82,5.07 0,5.07" style="fill:white;fill-rule:nonzero;"/>
    </g>
</svg>
