<?xml version="1.0" encoding="UTF-8" standalone="no"?>
<!DOCTYPE svg PUBLIC "-//W3C//DTD SVG 1.1//EN" "http://www.w3.org/Graphics/SVG/1.1/DTD/svg11.dtd">
<svg width="100%" height="100%" viewBox="0 0 3528 670" version="1.1" xmlns="http://www.w3.org/2000/svg" xmlns:xlink="http://www.w3.org/1999/xlink" xml:space="preserve" xmlns:serif="http://www.serif.com/" style="fill-rule:evenodd;clip-rule:evenodd;stroke-linejoin:round;stroke-miterlimit:2;">
    <g transform="matrix(1,0,0,1,-544.756591,-598.779246)">
        <g id="画板2" transform="matrix(1,0,0,1,0,-2098.850394)">
            <rect x="0" y="2098.85" width="4801.874" height="1862.63" style="fill:none;"/>
            <g transform="matrix(11.420486,0,0,11.420486,1343.505393,3001.266105)">
                <path d="M0,5.43C3.084,5.842 6.128,6.377 9.13,7.029C10.563,7.341 11.989,7.68 13.404,8.044C22.451,10.376 31.065,13.781 39.106,18.114C31.622,12.044 23.107,7.2 13.864,3.883C13.879,3.495 13.887,3.106 13.887,2.714C13.887,-4.288 11.431,-10.717 7.332,-15.757C1.961,-22.365 -6.235,-26.587 -15.414,-26.587C-27.122,-26.587 -37.226,-19.72 -41.919,-9.794C-43.333,-6.803 -44.256,-3.535 -44.581,-0.092C-43.964,-0.527 -43.341,-0.953 -42.713,-1.367C-42.141,-4.303 -41.08,-7.065 -39.617,-9.562C-35.059,-17.35 -26.605,-22.581 -16.929,-22.581C-10.087,-22.581 -3.854,-19.964 0.821,-15.677C5.761,-11.148 8.962,-4.755 9.309,2.389C2.84,0.468 -3.946,-0.721 -10.951,-1.076C-12.429,-1.152 -13.917,-1.189 -15.414,-1.189C-25.132,-1.189 -34.477,0.411 -43.198,3.361C-43.697,3.531 -44.197,3.704 -44.693,3.883C-48.129,5.116 -51.464,6.56 -54.682,8.201L-54.684,8.202C-60.127,10.973 -65.238,14.303 -69.94,18.116C-66.544,16.286 -63.044,14.621 -59.453,13.132C-54.542,11.096 -49.458,9.39 -44.232,8.044C-41.727,21.683 -29.776,32.017 -15.414,32.017C-3.548,32.017 6.671,24.963 11.28,14.817C10.234,13.784 9.162,12.778 8.064,11.802C4.646,22.341 -5.252,29.959 -16.929,29.959C-30.072,29.959 -40.959,20.309 -42.894,7.708C-34.087,5.55 -24.885,4.407 -15.414,4.407C-10.187,4.407 -5.042,4.756 0,5.43" style="fill-rule:nonzero;"/>
            </g>
            <g transform="matrix(16.13203,0,0,16.13203,2228.287834,2968.515714)">
                <path d="M0,10.768C0,11.514 -0.605,12.119 -1.351,12.119L-19.868,12.119C-22.162,12.119 -24.021,10.26 -24.021,7.966L-24.021,0.001C-24.021,-0.746 -23.416,-1.351 -22.67,-1.351C-21.923,-1.351 -21.318,-0.746 -21.318,0.001L-21.318,7.966C-21.318,8.767 -20.669,9.416 -19.868,9.416L-1.351,9.416C-0.605,9.416 0,10.022 0,10.768" style="fill-rule:nonzero;"/>
            </g>
            <g transform="matrix(16.13203,0,0,16.13203,3609.397706,3055.385082)">
                <path d="M0,0C0,0.746 -0.605,1.351 -1.351,1.351L-16.817,1.351C-17.564,1.351 -18.169,0.746 -18.169,0C-18.169,-0.747 -17.564,-1.351 -16.817,-1.351L-1.351,-1.351C-0.605,-1.351 0,-0.747 0,0" style="fill-rule:nonzero;"/>
            </g>
            <g transform="matrix(16.13203,0,0,16.13203,3617.300788,2968.530232)">
                <path d="M0,10.767C0,11.514 -0.605,12.118 -1.351,12.118L-17.307,12.118C-21.027,12.118 -24.042,9.103 -24.042,5.384C-24.042,1.664 -21.027,-1.351 -17.307,-1.351L-1.351,-1.351C-0.605,-1.351 0,-0.746 0,-0C0,0.747 -0.605,1.352 -1.351,1.352L-17.307,1.352C-19.534,1.352 -21.339,3.157 -21.339,5.384C-21.339,7.611 -19.534,9.416 -17.307,9.416L-1.351,9.416C-0.605,9.416 0,10.021 0,10.767" style="fill-rule:nonzero;"/>
            </g>
            <g transform="matrix(16.13203,0,0,16.13203,3700.559808,2968.525393)">
                <path d="M0,10.768L0,2.803C0,0.509 1.859,-1.351 4.153,-1.351L18.877,-1.351C21.171,-1.351 23.031,0.509 23.031,2.803L23.031,10.768C23.031,11.514 22.425,12.119 21.68,12.119C20.933,12.119 20.328,11.514 20.328,10.768L20.328,2.803C20.328,2.002 19.678,1.352 18.877,1.352L4.153,1.352C3.352,1.352 2.703,2.002 2.703,2.803L2.703,10.768C2.703,11.514 2.098,12.119 1.351,12.119C0.605,12.119 0,11.514 0,10.768" style="fill-rule:nonzero;"/>
            </g>
            <g transform="matrix(16.13203,0,0,16.13203,2683.244958,3142.244771)">
                <path d="M0,-10.768L0,-2.803C0,-0.509 -1.859,1.351 -4.153,1.351L-18.877,1.351C-21.171,1.351 -23.031,-0.509 -23.031,-2.803L-23.031,-10.768C-23.031,-11.514 -22.425,-12.119 -21.68,-12.119C-20.933,-12.119 -20.328,-11.514 -20.328,-10.768L-20.328,-2.803C-20.328,-2.002 -19.678,-1.352 -18.877,-1.352L-4.153,-1.352C-3.352,-1.352 -2.703,-2.002 -2.703,-2.803L-2.703,-10.768C-2.703,-11.514 -2.098,-12.119 -1.351,-12.119C-0.605,-12.119 0,-11.514 0,-10.768" style="fill-rule:nonzero;"/>
            </g>
            <g transform="matrix(16.13203,0,0,16.13203,3154.351857,3142.236705)">
                <path d="M0,-10.768L0,-0.001C0,0.745 -0.605,1.351 -1.351,1.351C-2.098,1.351 -2.703,0.745 -2.703,-0.001L-2.703,-7.434C-5.241,-5.356 -8.485,-4.11 -12.021,-4.11C-15.557,-4.11 -18.801,-5.356 -21.339,-7.434L-21.339,-0.001C-21.339,0.745 -21.944,1.351 -22.691,1.351C-23.437,1.351 -24.042,0.745 -24.042,-0.001L-24.042,-10.768C-24.042,-11.514 -23.437,-12.119 -22.691,-12.119C-22.258,-12.119 -21.874,-11.916 -21.626,-11.601C-21.616,-11.587 -21.606,-11.573 -21.595,-11.559C-19.399,-8.672 -15.928,-6.808 -12.021,-6.808C-8.114,-6.808 -4.642,-8.672 -2.447,-11.559C-2.436,-11.573 -2.426,-11.587 -2.416,-11.601C-2.168,-11.916 -1.784,-12.119 -1.351,-12.119C-0.605,-12.119 0,-11.514 0,-10.768" style="fill-rule:nonzero;"/>
            </g>
            <g transform="matrix(16.13203,0,0,16.13203,2979.309652,3113.720116)">
                <path d="M0,1.398L-1.218,2.12C-1.76,2.441 -2.445,2.05 -2.445,1.421L-2.445,-0.023C-2.445,-0.652 -1.76,-1.043 -1.218,-0.722L0,0C0.531,0.314 0.531,1.083 0,1.398" style="fill-rule:nonzero;"/>
            </g>
        </g>
    </g>
</svg>
